<?xml version="1.0" encoding="UTF-8" standalone="no"?>
<!DOCTYPE svg PUBLIC "-//W3C//DTD SVG 1.1//EN" "http://www.w3.org/Graphics/SVG/1.1/DTD/svg11.dtd">
<svg version="1.1" xmlns="http://www.w3.org/2000/svg" xmlns:xlink="http://www.w3.org/1999/xlink" preserveAspectRatio="xMidYMid meet" viewBox="0 0 640 640" width="640" height="640"><defs><path d="M261.17 73.7L267.3 97.1C253.21 97.1 245.37 97.1 243.81 97.1C231.38 97.1 221.32 104.06 221.32 112.65C221.32 123.49 221.32 210.21 221.32 221.05C221.32 229.64 231.38 236.6 243.81 236.6C271.08 236.6 489.29 236.6 516.57 236.6C528.98 236.6 539.06 229.64 539.06 221.05C539.06 210.21 539.06 123.49 539.06 112.65C539.06 104.06 528.98 97.1 516.57 97.1C504.18 97.1 442.28 97.1 330.85 97.1L261.17 73.7Z" id="g8Knfa7B"></path><path d="M285.04 169.6C281.2 173.47 276.08 175.61 270.63 175.65C270.62 175.65 270.61 175.65 270.59 175.65C270.56 175.65 270.53 175.65 270.5 175.65C265.02 175.65 259.88 173.52 256 169.64C252.13 165.77 250 160.62 250 155.15C250 149.67 252.13 144.53 256 140.65C259.88 136.78 265.02 134.65 270.5 134.65C270.53 134.65 270.56 134.65 270.59 134.65C270.61 134.65 270.62 134.65 270.64 134.65C276.08 134.69 281.2 136.83 285.04 140.7C288.88 144.56 291 149.69 291 155.15C291 160.6 288.88 165.74 285.04 169.6Z" id="b17zYPMMMM"></path><path d="M285.04 169.6C281.2 173.47 276.08 175.61 270.63 175.65C270.62 175.65 270.61 175.65 270.59 175.65C270.59 171.55 270.59 138.75 270.59 134.65C270.61 134.65 270.62 134.65 270.64 134.65C276.08 134.69 281.2 136.83 285.04 140.7C288.88 144.56 291 149.69 291 155.15C291 160.6 288.88 165.74 285.04 169.6Z" id="k4dFOwI9JE"></path><path d="M274.02 155.86C274.02 157.74 272.49 159.28 270.6 159.28C270.6 159.28 270.6 159.28 270.59 159.28L270.59 143.28C270.6 143.28 270.6 143.28 270.6 143.28C272.49 143.28 274.02 144.81 274.02 146.7C274.02 148.53 274.02 154.94 274.02 155.86Z" id="j19o8ccOLw"></path><path d="M270.6 143.28C270.63 143.28 270.57 143.28 270.6 143.28C270.6 143.28 270.6 143.28 270.6 143.28Z" id="b5xaUzWdn"></path><path d="M270.6 166.84C270.6 166.84 270.6 166.84 270.59 166.84L270.59 160.38C270.6 160.38 270.6 160.38 270.6 160.38C272.38 160.38 273.83 161.83 273.83 163.61C273.83 165.39 272.38 166.84 270.6 166.84Z" id="b2RwYXqkrl"></path><path d="M274.02 155.86C274.02 157.74 272.49 159.28 270.6 159.28C270.6 159.28 270.59 159.28 270.59 159.28C269.71 159.25 268.8 158.9 268.19 158.28C267.54 157.63 267.19 156.77 267.19 155.86C267.19 154.94 267.19 147.61 267.19 146.7C267.19 144.83 268.73 143.33 270.59 143.28C270.59 143.28 270.6 143.28 270.6 143.28C272.49 143.28 274.02 144.81 274.02 146.7C274.02 146.7 274.02 154.94 274.02 155.86Z" id="f3llq0xrly"></path><path d="M270.6 166.84C270.6 166.84 270.59 166.84 270.59 166.84C268.81 166.84 267.37 165.39 267.37 163.61C267.37 161.83 268.81 160.38 270.59 160.38C270.59 160.38 270.6 160.38 270.6 160.38C272.38 160.38 273.83 161.83 273.83 163.61C273.83 165.39 272.38 166.84 270.6 166.84Z" id="aBtqdzn6F"></path><path d="M270.6 159.28C270.57 159.28 270.63 159.28 270.6 159.28C270.6 159.28 270.6 159.28 270.6 159.28Z" id="cetf2LkSt"></path></defs><g><g><g><g><filter id="shadow9030631" x="210.32" y="62.7" width="342.74" height="186.9" filterUnits="userSpaceOnUse" primitiveUnits="userSpaceOnUse"><feFlood></feFlood><feComposite in2="SourceAlpha" operator="in"></feComposite><feGaussianBlur stdDeviation="1"></feGaussianBlur><feOffset dx="3" dy="2" result="afterOffset"></feOffset><feFlood flood-color="#000000" flood-opacity="0.5"></feFlood><feComposite in2="afterOffset" operator="in"></feComposite><feMorphology operator="dilate" radius="1"></feMorphology><feComposite in2="SourceAlpha" operator="out"></feComposite></filter><path d="M261.17 73.7L267.3 97.1C253.21 97.1 245.37 97.1 243.81 97.1C231.38 97.1 221.32 104.06 221.32 112.65C221.32 123.49 221.32 210.21 221.32 221.05C221.32 229.64 231.38 236.6 243.81 236.6C271.08 236.6 489.29 236.6 516.57 236.6C528.98 236.6 539.06 229.64 539.06 221.05C539.06 210.21 539.06 123.49 539.06 112.65C539.06 104.06 528.98 97.1 516.57 97.1C504.18 97.1 442.28 97.1 330.85 97.1L261.17 73.7Z" id="c6a7r4AqG4" fill="white" fill-opacity="1" filter="url(#shadow9030631)"></path></g><use xlink:href="#g8Knfa7B" opacity="1" fill="#ffffff" fill-opacity="1"></use><g><use xlink:href="#g8Knfa7B" opacity="1" fill-opacity="0" stroke="#000000" stroke-width="1" stroke-opacity="1"></use></g></g><g><use xlink:href="#b17zYPMMMM" opacity="1" fill="#ff771a" fill-opacity="1"></use><g><use xlink:href="#b17zYPMMMM" opacity="1" fill-opacity="0" stroke="#000000" stroke-width="1" stroke-opacity="0"></use></g></g><g><use xlink:href="#k4dFOwI9JE" opacity="1" fill="#ff4a05" fill-opacity="1"></use><g><use xlink:href="#k4dFOwI9JE" opacity="1" fill-opacity="0" stroke="#000000" stroke-width="1" stroke-opacity="0"></use></g></g><g><use xlink:href="#j19o8ccOLw" opacity="1" fill="#ddebf0" fill-opacity="1"></use><g><use xlink:href="#j19o8ccOLw" opacity="1" fill-opacity="0" stroke="#000000" stroke-width="1" stroke-opacity="0"></use></g></g><g><use xlink:href="#b5xaUzWdn" opacity="1" fill="#000000" fill-opacity="1"></use><g><use xlink:href="#b5xaUzWdn" opacity="1" fill-opacity="0" stroke="#000000" stroke-width="1" stroke-opacity="0"></use></g></g><g><use xlink:href="#b2RwYXqkrl" opacity="1" fill="#ddebf0" fill-opacity="1"></use><g><use xlink:href="#b2RwYXqkrl" opacity="1" fill-opacity="0" stroke="#000000" stroke-width="1" stroke-opacity="0"></use></g></g><g><use xlink:href="#f3llq0xrly" opacity="1" fill="#ffffff" fill-opacity="1"></use><g><use xlink:href="#f3llq0xrly" opacity="1" fill-opacity="0" stroke="#000000" stroke-width="1" stroke-opacity="0"></use></g></g><g><use xlink:href="#aBtqdzn6F" opacity="1" fill="#ffffff" fill-opacity="1"></use><g><use xlink:href="#aBtqdzn6F" opacity="1" fill-opacity="0" stroke="#000000" stroke-width="1" stroke-opacity="0"></use></g></g><g><use xlink:href="#cetf2LkSt" opacity="1" fill="#000000" fill-opacity="1"></use><g><use xlink:href="#cetf2LkSt" opacity="1" fill-opacity="0" stroke="#000000" stroke-width="1" stroke-opacity="0"></use></g></g></g></g></svg>