<?xml version="1.0" encoding="UTF-8" standalone="no"?>
<!DOCTYPE svg PUBLIC "-//W3C//DTD SVG 1.1//EN" "http://www.w3.org/Graphics/SVG/1.1/DTD/svg11.dtd">
<svg version="1.1" xmlns="http://www.w3.org/2000/svg" xmlns:xlink="http://www.w3.org/1999/xlink" preserveAspectRatio="xMidYMid meet" viewBox="78.57775020678227 115.81138814942767 395.036807278743 152.0481638720853" width="389.54" height="147.55"><defs><path d="M166.22 116.31C153.49 116.31 143.18 123.68 143.18 132.76C143.18 134.34 143.18 141.69 143.18 154.79L79.08 137.86C121.81 166.04 143.18 181.55 143.18 184.38C143.18 214.67 143.18 240.42 143.18 247.41C143.18 256.5 153.49 263.86 166.22 263.86C194.15 263.86 417.64 263.86 445.58 263.86C458.29 263.86 468.61 256.5 468.61 247.41C468.61 235.94 468.61 144.23 468.61 132.76C468.61 123.68 458.29 116.31 445.58 116.31C426.56 116.31 168.62 116.31 166.22 116.31Z" id="b3FeDcP82B"></path></defs><g><g><g><filter id="shadow6690977" x="68.08" y="105.31" width="414.54" height="171.55" filterUnits="userSpaceOnUse" primitiveUnits="userSpaceOnUse"><feFlood></feFlood><feComposite in2="SourceAlpha" operator="in"></feComposite><feGaussianBlur stdDeviation="1"></feGaussianBlur><feOffset dx="3" dy="2" result="afterOffset"></feOffset><feFlood flood-color="#000000" flood-opacity="0.5"></feFlood><feComposite in2="afterOffset" operator="in"></feComposite><feMorphology operator="dilate" radius="1"></feMorphology><feComposite in2="SourceAlpha" operator="out"></feComposite></filter><path d="M166.22 116.31C153.49 116.31 143.18 123.68 143.18 132.76C143.18 134.34 143.18 141.69 143.18 154.79L79.08 137.86C121.81 166.04 143.18 181.55 143.18 184.38C143.18 214.67 143.18 240.42 143.18 247.41C143.18 256.5 153.49 263.86 166.22 263.86C194.15 263.86 417.64 263.86 445.58 263.86C458.29 263.86 468.61 256.5 468.61 247.41C468.61 235.94 468.61 144.23 468.61 132.76C468.61 123.68 458.29 116.31 445.58 116.31C426.56 116.31 168.62 116.31 166.22 116.31Z" id="c5e9exDuLT" fill="white" fill-opacity="1" filter="url(#shadow6690977)"></path></g><use xlink:href="#b3FeDcP82B" opacity="1" fill="#ffffff" fill-opacity="1"></use><g><use xlink:href="#b3FeDcP82B" opacity="1" fill-opacity="0" stroke="#000000" stroke-width="1" stroke-opacity="1"></use></g><g><filter id="shadow3878282" x="70.08" y="107.31" width="408.54" height="166.55" filterUnits="userSpaceOnUse" primitiveUnits="userSpaceOnUse"><feFlood></feFlood><feComposite in2="SourceAlpha" operator="out"></feComposite><feGaussianBlur stdDeviation="1"></feGaussianBlur><feOffset dx="1" dy="1" result="afterOffset"></feOffset><feFlood flood-color="#ffffff" flood-opacity="0.8"></feFlood><feComposite in2="afterOffset" operator="in"></feComposite><feMorphology operator="dilate" radius="1"></feMorphology><feComposite in2="SourceAlpha" operator="in"></feComposite></filter><path d="M166.22 116.31C153.49 116.31 143.18 123.68 143.18 132.76C143.18 134.34 143.18 141.69 143.18 154.79L79.08 137.86C121.81 166.04 143.18 181.55 143.18 184.38C143.18 214.67 143.18 240.42 143.18 247.41C143.18 256.5 153.49 263.86 166.22 263.86C194.15 263.86 417.64 263.86 445.58 263.86C458.29 263.86 468.61 256.5 468.61 247.41C468.61 235.94 468.61 144.23 468.61 132.76C468.61 123.68 458.29 116.31 445.58 116.31C426.56 116.31 168.62 116.31 166.22 116.31Z" id="a5nqupJ6s" fill="white" fill-opacity="1" filter="url(#shadow3878282)"></path></g></g></g></svg>