<?xml version="1.0" encoding="UTF-8" standalone="no"?>
<!DOCTYPE svg PUBLIC "-//W3C//DTD SVG 1.1//EN" "http://www.w3.org/Graphics/SVG/1.1/DTD/svg11.dtd">
<svg version="1.1" xmlns="http://www.w3.org/2000/svg" xmlns:xlink="http://www.w3.org/1999/xlink" preserveAspectRatio="xMidYMid meet" viewBox="22.27323619185772 235.93531977336005 595.4535276162846 164.71055703447843" width="571.45" height="140.71"><defs><path d="M147.88 247.94C128.62 247.94 113.01 254.96 113.01 263.62C113.01 265.13 113.01 279.83 113.01 307.72L34.27 286.18C86.76 321.14 113.01 339.98 113.01 342.68C113.01 371.56 113.01 366.29 113.01 372.96C113.01 381.62 128.62 388.65 147.88 388.65C190.18 388.65 528.55 388.65 570.85 388.65C590.1 388.65 605.73 381.62 605.73 372.96C605.73 362.02 605.73 274.56 605.73 263.62C605.73 254.96 590.1 247.94 570.85 247.94C542.05 247.94 151.53 247.94 147.88 247.94Z" id="hdfKZ82YY"></path><path d="M160.88 327.58C158.41 330.06 155.12 331.44 151.62 331.47C151.61 331.47 151.6 331.47 151.59 331.47C151.57 331.47 151.55 331.47 151.53 331.47C148.01 331.47 144.7 330.1 142.22 327.61C139.73 325.12 138.36 321.81 138.36 318.29C138.36 314.77 139.73 311.46 142.22 308.97C144.7 306.48 148.01 305.11 151.53 305.11C151.55 305.11 151.57 305.11 151.59 305.11C151.6 305.11 151.61 305.11 151.62 305.12C155.12 305.14 158.41 306.52 160.88 309C163.35 311.49 164.71 314.79 164.71 318.29C164.71 321.8 163.35 325.1 160.88 327.58Z" id="c29naPwPo"></path><path d="M160.88 327.58C158.41 330.06 155.12 331.44 151.62 331.47C151.61 331.47 151.6 331.47 151.59 331.47C151.59 328.83 151.59 307.75 151.59 305.11C151.6 305.11 151.61 305.11 151.62 305.12C155.12 305.14 158.41 306.52 160.88 309C163.35 311.49 164.71 314.79 164.71 318.29C164.71 321.8 163.35 325.1 160.88 327.58Z" id="f1epmnWNPp"></path><path d="M151.6 310.66C151.62 310.66 151.58 310.66 151.6 310.66C151.6 310.66 151.6 310.66 151.6 310.66Z" id="aSpq24slv"></path><path d="M153.79 318.75C153.79 319.96 152.81 320.94 151.6 320.94C151.6 320.94 151.59 320.94 151.59 320.94C151.03 320.93 150.44 320.7 150.04 320.3C149.63 319.89 149.4 319.34 149.4 318.75C149.4 318.16 149.4 313.45 149.4 312.86C149.4 311.66 150.4 310.7 151.59 310.66C151.59 310.66 151.6 310.66 151.6 310.66C152.81 310.66 153.79 311.65 153.79 312.86C153.79 312.86 153.79 318.16 153.79 318.75Z" id="abFE5zJd"></path><path d="M151.6 320.94C151.58 320.94 151.62 320.94 151.6 320.94C151.6 320.94 151.6 320.94 151.6 320.94Z" id="a1tE6heje"></path><path d="M151.6 325.81C151.6 325.81 151.59 325.81 151.59 325.81C150.45 325.8 149.52 324.87 149.52 323.73C149.52 322.58 150.45 321.65 151.59 321.65C151.59 321.65 151.6 321.65 151.6 321.65C152.74 321.65 153.68 322.58 153.68 323.73C153.68 324.87 152.74 325.81 151.6 325.81Z" id="b32C2Qulu"></path><path d="M151.6 325.81C151.6 325.81 151.59 325.81 151.59 325.81L151.59 321.65C151.59 321.65 151.6 321.65 151.6 321.65C152.74 321.65 153.68 322.58 153.68 323.73C153.68 324.87 152.74 325.81 151.6 325.81Z" id="f9foSbvsY"></path><path d="M153.79 318.75C153.79 319.96 152.81 320.94 151.6 320.94C151.6 320.94 151.6 320.94 151.59 320.94L151.59 310.66C151.6 310.66 151.6 310.66 151.6 310.66C152.81 310.66 153.79 311.65 153.79 312.86C153.79 314.04 153.79 318.16 153.79 318.75Z" id="drFTWJspk"></path></defs><g><g><g><filter id="shadow3645173" x="6.27" y="219.94" width="627.45" height="196.71" filterUnits="userSpaceOnUse" primitiveUnits="userSpaceOnUse"><feFlood></feFlood><feComposite in2="SourceAlpha" operator="in"></feComposite><feGaussianBlur stdDeviation="3.32"></feGaussianBlur><feOffset dx="0" dy="0" result="afterOffset"></feOffset><feFlood flood-color="#000000" flood-opacity="0.5"></feFlood><feComposite in2="afterOffset" operator="in"></feComposite><feMorphology operator="dilate" radius="1"></feMorphology><feComposite in2="SourceAlpha" operator="out"></feComposite></filter><path d="M147.88 247.94C128.62 247.94 113.01 254.96 113.01 263.62C113.01 265.13 113.01 279.83 113.01 307.72L34.27 286.18C86.76 321.14 113.01 339.98 113.01 342.68C113.01 371.56 113.01 366.29 113.01 372.96C113.01 381.62 128.62 388.65 147.88 388.65C190.18 388.65 528.55 388.65 570.85 388.65C590.1 388.65 605.73 381.62 605.73 372.96C605.73 362.02 605.73 274.56 605.73 263.62C605.73 254.96 590.1 247.94 570.85 247.94C542.05 247.94 151.53 247.94 147.88 247.94Z" id="b31wAVqTpG" fill="white" fill-opacity="1" filter="url(#shadow3645173)"></path></g><use xlink:href="#hdfKZ82YY" opacity="1" fill="#ffffff" fill-opacity="1"></use><g><use xlink:href="#hdfKZ82YY" opacity="1" fill-opacity="0" stroke="#cccccc" stroke-width="1" stroke-opacity="1"></use></g><g><filter id="shadow8293285" x="25.27" y="238.94" width="590.45" height="159.71" filterUnits="userSpaceOnUse" primitiveUnits="userSpaceOnUse"><feFlood></feFlood><feComposite in2="SourceAlpha" operator="out"></feComposite><feGaussianBlur stdDeviation="1"></feGaussianBlur><feOffset dx="1" dy="1" result="afterOffset"></feOffset><feFlood flood-color="#ffffff" flood-opacity="0.8"></feFlood><feComposite in2="afterOffset" operator="in"></feComposite><feMorphology operator="dilate" radius="1"></feMorphology><feComposite in2="SourceAlpha" operator="in"></feComposite></filter><path d="M147.88 247.94C128.62 247.94 113.01 254.96 113.01 263.62C113.01 265.13 113.01 279.83 113.01 307.72L34.27 286.18C86.76 321.14 113.01 339.98 113.01 342.68C113.01 371.56 113.01 366.29 113.01 372.96C113.01 381.62 128.62 388.65 147.88 388.65C190.18 388.65 528.55 388.65 570.85 388.65C590.1 388.65 605.73 381.62 605.73 372.96C605.73 362.02 605.73 274.56 605.73 263.62C605.73 254.96 590.1 247.94 570.85 247.94C542.05 247.94 151.53 247.94 147.88 247.94Z" id="c2IMUnQH1N" fill="white" fill-opacity="1" filter="url(#shadow8293285)"></path></g></g><g><use xlink:href="#c29naPwPo" opacity="1" fill="#ff771a" fill-opacity="1"></use><g><use xlink:href="#c29naPwPo" opacity="1" fill-opacity="0" stroke="#000000" stroke-width="1" stroke-opacity="0"></use></g></g><g><use xlink:href="#f1epmnWNPp" opacity="1" fill="#ff4a05" fill-opacity="1"></use><g><use xlink:href="#f1epmnWNPp" opacity="1" fill-opacity="0" stroke="#000000" stroke-width="1" stroke-opacity="0"></use></g></g><g><use xlink:href="#aSpq24slv" opacity="1" fill="#000000" fill-opacity="1"></use><g><use xlink:href="#aSpq24slv" opacity="1" fill-opacity="0" stroke="#000000" stroke-width="1" stroke-opacity="0"></use></g></g><g><use xlink:href="#abFE5zJd" opacity="1" fill="#ffffff" fill-opacity="1"></use><g><use xlink:href="#abFE5zJd" opacity="1" fill-opacity="0" stroke="#000000" stroke-width="1" stroke-opacity="0"></use></g></g><g><use xlink:href="#a1tE6heje" opacity="1" fill="#000000" fill-opacity="1"></use><g><use xlink:href="#a1tE6heje" opacity="1" fill-opacity="0" stroke="#000000" stroke-width="1" stroke-opacity="0"></use></g></g><g><use xlink:href="#b32C2Qulu" opacity="1" fill="#ffffff" fill-opacity="1"></use><g><use xlink:href="#b32C2Qulu" opacity="1" fill-opacity="0" stroke="#000000" stroke-width="1" stroke-opacity="0"></use></g></g><g><use xlink:href="#f9foSbvsY" opacity="1" fill="#ddebf0" fill-opacity="1"></use><g><use xlink:href="#f9foSbvsY" opacity="1" fill-opacity="0" stroke="#000000" stroke-width="1" stroke-opacity="0"></use></g></g><g><use xlink:href="#drFTWJspk" opacity="1" fill="#ddebf0" fill-opacity="1"></use><g><use xlink:href="#drFTWJspk" opacity="1" fill-opacity="0" stroke="#000000" stroke-width="1" stroke-opacity="0"></use></g></g></g></svg>