<?xml version="1.0" encoding="UTF-8" standalone="no"?>
<!DOCTYPE svg PUBLIC "-//W3C//DTD SVG 1.1//EN" "http://www.w3.org/Graphics/SVG/1.1/DTD/svg11.dtd">
<svg version="1.1" xmlns="http://www.w3.org/2000/svg" xmlns:xlink="http://www.w3.org/1999/xlink" preserveAspectRatio="xMidYMid meet" viewBox="79.98538582199006 104.31138814942761 401.43589888948577 171.54816387208535" width="377.44" height="147.55"><defs><path d="M167.02 116.31C154.3 116.31 143.99 123.68 143.99 132.76C143.99 134.34 143.99 149.75 143.99 179L91.99 156.41C126.65 193.08 143.99 212.82 143.99 215.66C143.99 245.94 143.99 240.42 143.99 247.41C143.99 256.5 154.3 263.86 167.02 263.86C194.96 263.86 418.45 263.86 446.38 263.86C459.1 263.86 469.42 256.5 469.42 247.41C469.42 235.94 469.42 144.23 469.42 132.76C469.42 123.68 459.1 116.31 446.38 116.31C427.36 116.31 169.43 116.31 167.02 116.31Z" id="b1lkAnvJ96"></path><path d="M217.96 208.11C213.16 212.93 206.78 215.61 199.99 215.65C199.97 215.65 199.96 215.66 199.94 215.65C199.9 215.66 199.86 215.66 199.82 215.66C192.99 215.66 186.57 213 181.74 208.17C176.91 203.34 174.25 196.92 174.25 190.09C174.25 183.26 176.91 176.84 181.74 172C186.57 167.18 192.99 164.52 199.82 164.52C199.86 164.52 199.9 164.52 199.94 164.52C199.96 164.52 199.97 164.52 199.99 164.52C206.79 164.56 213.16 167.24 217.96 172.06C222.75 176.88 225.39 183.28 225.39 190.09C225.39 196.89 222.75 203.29 217.96 208.11Z" id="bjDlm2LTB"></path><path d="M217.96 208.11C213.16 212.93 206.78 215.61 199.99 215.65C199.97 215.65 199.96 215.66 199.94 215.65C199.94 210.54 199.94 169.63 199.94 164.52C199.96 164.52 199.97 164.52 199.99 164.52C206.79 164.56 213.16 167.24 217.96 172.06C222.75 176.88 225.39 183.28 225.39 190.09C225.39 196.89 222.75 203.29 217.96 208.11Z" id="ct9GRFVrK"></path><path d="M199.95 175.28C199.99 175.28 199.91 175.28 199.95 175.28C199.95 175.28 199.95 175.28 199.95 175.28Z" id="c3gqRLgFIR"></path><path d="M204.21 190.97C204.21 193.32 202.3 195.24 199.95 195.24C199.95 195.24 199.94 195.24 199.94 195.24C198.84 195.2 197.71 194.76 196.94 193.99C196.13 193.18 195.69 192.11 195.69 190.97C195.69 189.83 195.69 180.69 195.69 179.54C195.69 177.22 197.62 175.35 199.94 175.28C199.94 175.28 199.95 175.28 199.95 175.28C202.3 175.28 204.21 177.19 204.21 179.54C204.21 179.54 204.21 189.83 204.21 190.97Z" id="b37QWC1fQm"></path><path d="M199.95 195.24C199.91 195.24 199.99 195.24 199.95 195.24C199.95 195.24 199.95 195.24 199.95 195.24Z" id="d7o1Q0e1Z"></path><path d="M199.95 204.67C199.95 204.67 199.94 204.67 199.94 204.67C197.72 204.67 195.92 202.86 195.92 200.64C195.92 198.42 197.72 196.61 199.94 196.6C199.94 196.6 199.95 196.6 199.95 196.6C202.17 196.6 203.98 198.41 203.98 200.64C203.98 202.86 202.17 204.67 199.95 204.67Z" id="a3Z3saEEsz"></path><path d="M199.95 204.67C199.95 204.67 199.94 204.67 199.94 204.67L199.94 196.6C199.94 196.6 199.95 196.6 199.95 196.6C202.17 196.6 203.98 198.41 203.98 200.64C203.98 202.86 202.17 204.67 199.95 204.67Z" id="c2OS8Rw53u"></path><path d="M204.21 190.97C204.21 193.32 202.3 195.24 199.95 195.24C199.95 195.24 199.95 195.24 199.94 195.24L199.94 175.28C199.95 175.28 199.95 175.28 199.95 175.28C202.3 175.28 204.21 177.19 204.21 179.54C204.21 181.83 204.21 189.83 204.21 190.97Z" id="d1qGlp0jZ"></path></defs><g><g><g><filter id="shadow2366227" x="63.99" y="88.31" width="433.44" height="203.55" filterUnits="userSpaceOnUse" primitiveUnits="userSpaceOnUse"><feFlood></feFlood><feComposite in2="SourceAlpha" operator="in"></feComposite><feGaussianBlur stdDeviation="3.32"></feGaussianBlur><feOffset dx="0" dy="0" result="afterOffset"></feOffset><feFlood flood-color="#000000" flood-opacity="0.5"></feFlood><feComposite in2="afterOffset" operator="in"></feComposite><feMorphology operator="dilate" radius="1"></feMorphology><feComposite in2="SourceAlpha" operator="out"></feComposite></filter><path d="M167.02 116.31C154.3 116.31 143.99 123.68 143.99 132.76C143.99 134.34 143.99 149.75 143.99 179L91.99 156.41C126.65 193.08 143.99 212.82 143.99 215.66C143.99 245.94 143.99 240.42 143.99 247.41C143.99 256.5 154.3 263.86 167.02 263.86C194.96 263.86 418.45 263.86 446.38 263.86C459.1 263.86 469.42 256.5 469.42 247.41C469.42 235.94 469.42 144.23 469.42 132.76C469.42 123.68 459.1 116.31 446.38 116.31C427.36 116.31 169.43 116.31 167.02 116.31Z" id="eG74JetVM" fill="white" fill-opacity="1" filter="url(#shadow2366227)"></path></g><use xlink:href="#b1lkAnvJ96" opacity="1" fill="#ffffff" fill-opacity="1"></use><g><use xlink:href="#b1lkAnvJ96" opacity="1" fill-opacity="0" stroke="#cccccc" stroke-width="1" stroke-opacity="1"></use></g><g><filter id="shadow13889300" x="82.99" y="107.31" width="396.44" height="166.55" filterUnits="userSpaceOnUse" primitiveUnits="userSpaceOnUse"><feFlood></feFlood><feComposite in2="SourceAlpha" operator="out"></feComposite><feGaussianBlur stdDeviation="1"></feGaussianBlur><feOffset dx="1" dy="1" result="afterOffset"></feOffset><feFlood flood-color="#ffffff" flood-opacity="0.8"></feFlood><feComposite in2="afterOffset" operator="in"></feComposite><feMorphology operator="dilate" radius="1"></feMorphology><feComposite in2="SourceAlpha" operator="in"></feComposite></filter><path d="M167.02 116.31C154.3 116.31 143.99 123.68 143.99 132.76C143.99 134.34 143.99 149.75 143.99 179L91.99 156.41C126.65 193.08 143.99 212.82 143.99 215.66C143.99 245.94 143.99 240.42 143.99 247.41C143.99 256.5 154.3 263.86 167.02 263.86C194.96 263.86 418.45 263.86 446.38 263.86C459.1 263.86 469.42 256.5 469.42 247.41C469.42 235.94 469.42 144.23 469.42 132.76C469.42 123.68 459.1 116.31 446.38 116.31C427.36 116.31 169.43 116.31 167.02 116.31Z" id="dxerUIrsL" fill="white" fill-opacity="1" filter="url(#shadow13889300)"></path></g></g><g><use xlink:href="#bjDlm2LTB" opacity="1" fill="#ff771a" fill-opacity="1"></use><g><use xlink:href="#bjDlm2LTB" opacity="1" fill-opacity="0" stroke="#000000" stroke-width="1" stroke-opacity="0"></use></g></g><g><use xlink:href="#ct9GRFVrK" opacity="1" fill="#ff4a05" fill-opacity="1"></use><g><use xlink:href="#ct9GRFVrK" opacity="1" fill-opacity="0" stroke="#000000" stroke-width="1" stroke-opacity="0"></use></g></g><g><use xlink:href="#c3gqRLgFIR" opacity="1" fill="#000000" fill-opacity="1"></use><g><use xlink:href="#c3gqRLgFIR" opacity="1" fill-opacity="0" stroke="#000000" stroke-width="1" stroke-opacity="0"></use></g></g><g><use xlink:href="#b37QWC1fQm" opacity="1" fill="#ffffff" fill-opacity="1"></use><g><use xlink:href="#b37QWC1fQm" opacity="1" fill-opacity="0" stroke="#000000" stroke-width="1" stroke-opacity="0"></use></g></g><g><use xlink:href="#d7o1Q0e1Z" opacity="1" fill="#000000" fill-opacity="1"></use><g><use xlink:href="#d7o1Q0e1Z" opacity="1" fill-opacity="0" stroke="#000000" stroke-width="1" stroke-opacity="0"></use></g></g><g><use xlink:href="#a3Z3saEEsz" opacity="1" fill="#ffffff" fill-opacity="1"></use><g><use xlink:href="#a3Z3saEEsz" opacity="1" fill-opacity="0" stroke="#000000" stroke-width="1" stroke-opacity="0"></use></g></g><g><use xlink:href="#c2OS8Rw53u" opacity="1" fill="#ddebf0" fill-opacity="1"></use><g><use xlink:href="#c2OS8Rw53u" opacity="1" fill-opacity="0" stroke="#000000" stroke-width="1" stroke-opacity="0"></use></g></g><g><use xlink:href="#d1qGlp0jZ" opacity="1" fill="#ddebf0" fill-opacity="1"></use><g><use xlink:href="#d1qGlp0jZ" opacity="1" fill-opacity="0" stroke="#000000" stroke-width="1" stroke-opacity="0"></use></g></g></g></svg>